<?xml version="1.0" encoding="UTF-8"?><svg id="Layer_1" xmlns="http://www.w3.org/2000/svg" viewBox="0 0 50 50"><path d="M24.989,42.424c-6.762,0-8.655-2.281-8.834-3.63s-4.717-23.251-4.571-26.755c.154-3.716,7.383-4.462,13.971-4.462,6.588,0,12.437.765,12.84,4.462.403,3.697-4.142,25.927-4.571,26.755s-2.072,3.63-8.834,3.63Z" fill="none" stroke="#0b1a24" stroke-miterlimit="10"/><path d="M36.613,12.829c-.474,2.148-8.448,2.636-12.957,2.636s-10.106-.249-10.426-1.623,6.073-3.258,12.995-3.259c5.873,0,10.579,1.38,10.388,2.246Z" fill="#c5e0db"/><path d="M36.836,12.302c-.806-1.002-5.358-2.118-10.605-2.118h-.006c-5.777,0-11.925,1.362-13.157,2.913-.251.316-.268.596-.233.79h-.002c.256,2.233.918,6.081,1.864,10.834.96,4.825,2.252,12.395,2.43,13.614.223,1.526,2.995,3.071,7.862,3.071,5.241,0,7.443-1.977,7.876-3.022.42-1.011,3.919-21.334,4.148-25.533h0c.018-.143-.005-.337-.176-.55ZM13.695,13.594c.845-1.064,6.146-2.61,12.53-2.611h.006c5.559,0,9.579,1.234,9.979,1.81-.417,1.319-5.657,2.271-12.554,2.271-9.261,0-9.985-1.095-10.036-1.314-.005-.022.012-.077.075-.157Z" fill="#008a95"/><path d="M13.451,11.555c-.007.106.326.21.471.259,3.546.675,7.218.384,10.83.461,3.57-.125,7.291.108,10.752-.822.178-.088.426-.174.336-.347l.544-.268c.262.941-2.579,1.778-3.622,1.896-5.97.742-12.057.814-18.014-.114-.607-.164-2.092-.366-1.729-1.285l.434.22Z" fill="#fff"/><path d="M16.848,9.457c-1.105.481-2.582.794-3.397,1.674-.007.106.326.21.471.259,3.546.675,7.218.384,10.83.461,3.57-.125,7.291.108,10.752-.822.178-.088.426-.174.336-.347-.302-.411-.988-.718-1.564-.98-.607-.259-1.228-.497-1.853-.73.986.196,1.966.437,2.902.824,3.051,1.453-1.228,2.361-2.564,2.513-5.97.742-12.06.836-18.014-.114-.647-.103-2.297-.512-1.729-1.285s2.507-1.093,3.831-1.454h0Z" fill="#0b1a24"/><path d="M33.488,20.973c-.666,2.589-1.17,5.149-1.335,7.777-.722,3.385-1.191,6.818-1.013,10.282.841-3.492,1.593-6.996,1.868-10.56.607-2.453.829-4.995.481-7.5Z" fill="#eef8f8"/><path d="M34.301,15.595c-.78,1.232-1.163,2.575-.498,3.876.692-1.179,1.097-2.577.498-3.876Z" fill="#eef8f8"/></svg>