<?xml version="1.0" encoding="UTF-8"?><svg id="Layer_1" xmlns="http://www.w3.org/2000/svg" viewBox="0 0 50 50"><path d="M24.989,42.424c-6.762,0-8.655-2.281-8.834-3.63s-4.717-23.251-4.571-26.755c.154-3.716,7.383-4.462,13.971-4.462,6.588,0,12.437.765,12.84,4.462.403,3.697-4.142,25.927-4.571,26.755s-2.072,3.63-8.834,3.63Z" fill="none" stroke="#0b1a24" stroke-miterlimit="10"/><path d="M16.848,9.457c-1.105.481-2.582.794-3.397,1.674-.007.106.326.21.471.259,3.546.675,7.218.384,10.83.461,3.57-.125,7.291.108,10.752-.822.178-.088.426-.174.336-.347-.302-.411-.988-.718-1.564-.98-.607-.259-1.228-.497-1.853-.73.986.196,1.966.437,2.902.824,3.051,1.453-1.228,2.361-2.564,2.513-5.97.742-12.057.814-18.014-.114-.606-.164-2.092-.366-1.729-1.285,1.027-1.034,2.507-1.093,3.831-1.454h0Z" fill="#0b1a24"/></svg>