<?xml version="1.0" encoding="UTF-8"?><svg id="Layer_1" xmlns="http://www.w3.org/2000/svg" viewBox="0 0 50 50"><path d="M24.989,42.424c-6.762,0-8.814-2.565-8.834-3.63s-4.717-23.251-4.571-26.755c.154-3.716,7.383-4.462,13.971-4.462,6.588,0,12.437.765,12.84,4.462s-4.268,26.104-4.571,26.755-2.072,3.63-8.834,3.63Z" fill="none" stroke="#0b1a24" stroke-miterlimit="10"/><path d="M16.848,9.457c-1.105.481-2.582.794-3.397,1.674-.007.106.326.21.471.259,3.546.675,7.218.384,10.83.461,3.57-.125,7.291.108,10.752-.822.178-.088.426-.174.336-.347-.302-.411-.988-.718-1.564-.98-.607-.259-1.228-.497-1.853-.73.986.196,1.966.437,2.902.824,3.051,1.453-1.228,2.361-2.564,2.513-5.97.742-12.057.814-18.014-.114-.606-.164-2.092-.366-1.729-1.285,1.027-1.034,2.507-1.093,3.831-1.454h0Z" fill="#0b1a24"/><path d="M36.152,19.293c-.434,2.301-8.21,2.688-12.336,2.688s-9.246-.267-9.539-1.738,5.557-3.49,11.89-3.491c5.373,0,10.16,1.614,9.985,2.541Z" fill="#c5e0db"/><path d="M36.546,19.358c.026-.154.012-.389-.205-.651-.923-1.112-5.467-2.355-10.17-2.355h-.005c-5.695,0-10.795,1.555-11.985,3.005-.325.396-.341.743-.297.964,0,.002.001.003.001.005.126.658.24,1.297.356,1.941.143.798.286,1.603.455,2.455,1.016,5.101,2.354,12.681,2.427,13.589.104,1.298,2.896,3.096,7.865,3.096,5.385,0,7.51-2.177,7.874-3.016.372-.857,2.796-13.668,3.682-19.021,0,0,0-.002,0-.002,0-.002,0-.004,0-.006,0,0,0-.002,0-.003h0ZM14.8,19.864c.929-1.132,5.703-2.712,11.367-2.713h.005c5.244,0,9.282,1.477,9.581,2.1-.334,1.417-5.004,2.33-11.937,2.33-8.226,0-9.081-1.084-9.146-1.417-.02-.099.073-.23.13-.3Z" fill="#008a95"/><path d="M33.681,22.695c-.712,2.151-1.308,4.374-1.397,6.623-.748,2.948-1.265,5.952-1.013,8.995.759-2.837,1.493-5.703,1.742-8.618.59-2.29.956-4.603.667-7Z" fill="#eef8f8"/></svg>