<?xml version="1.0" encoding="UTF-8"?><svg id="Layer_1" xmlns="http://www.w3.org/2000/svg" viewBox="0 0 50 50"><path d="M24.989,42.424c-6.762,0-8.655-2.281-8.834-3.63s-4.717-23.251-4.571-26.755c.154-3.716,7.383-4.462,13.971-4.462,6.588,0,12.437.765,12.84,4.462s-4.142,25.927-4.571,26.755-2.072,3.63-8.834,3.63Z" fill="none" stroke="#0b1a24" stroke-miterlimit="10"/><path d="M16.848,9.457c-1.105.481-2.582.794-3.397,1.674-.007.106.326.21.471.259,3.546.675,7.218.384,10.83.461,3.57-.125,7.291.108,10.752-.822.178-.088.426-.174.336-.347-.302-.411-.988-.718-1.564-.98-.607-.259-1.228-.497-1.853-.73.986.196,1.966.437,2.902.824,3.051,1.453-1.228,2.361-2.564,2.513-5.97.742-12.057.814-18.014-.114-.606-.164-2.092-.366-1.729-1.285,1.027-1.034,2.507-1.093,3.831-1.454h0Z" fill="#0b1a24"/><path d="M33.679,32.688c-.333,1.731-6.326,1.973-9.491,1.973s-7.287-.306-7.512-1.413,4.457-2.52,9.315-2.521c4.122,0,7.822,1.263,7.688,1.96Z" fill="#c5e0db"/><path d="M33.899,32.188c-.726-.878-4.261-1.86-7.906-1.86h-.002c-4.15,0-8.492,1.023-9.482,2.234-.246.302-.259.575-.225.755h-.002c.424,2.427.763,4.457.845,5.018.222,1.526,2.993,3.071,7.862,3.071,5.24,0,7.443-1.977,7.877-3.023.177-.429.968-4.408,1.206-5.618h0s0,0,0-.001h0c.026-.136.018-.346-.173-.576ZM25.991,31.128h.003c3.828,0,6.878,1.058,7.275,1.548-.269.746-2.779,1.585-9.081,1.585-5.025,0-7.034-.67-7.119-1.09.032-.592,3.925-2.043,8.922-2.043Z" fill="#008a95"/><path d="M31.272,38.93c.702-1.157,1.003-2.532.418-3.81-.79,1.194-1.071,2.549-.418,3.81Z" fill="#eef8f8"/></svg>