<?xml version="1.0" encoding="UTF-8"?><svg id="Layer_1" xmlns="http://www.w3.org/2000/svg" viewBox="0 0 50 50"><path d="M24.989,42.424c-6.762,0-8.628-2.677-8.834-3.63s-4.717-23.251-4.571-26.755c.154-3.716,7.383-4.462,13.971-4.462,6.588,0,12.437.765,12.84,4.462.403,3.697-3.993,26.088-4.571,26.755-.509.588-2.072,3.63-8.834,3.63Z" fill="none" stroke="#0b1a24" stroke-miterlimit="10"/><path d="M16.847,9.457c-1.105.481-2.582.794-3.397,1.674-.007.106.326.21.471.259,3.546.675,7.218.384,10.83.461,3.57-.125,7.291.108,10.752-.822.178-.088.426-.174.336-.347-.302-.411-.988-.718-1.564-.98-.607-.259-1.228-.497-1.853-.73.986.196,1.966.437,2.902.824,3.051,1.453-1.228,2.361-2.564,2.513-5.97.742-12.057.814-18.014-.114-.606-.164-2.092-.366-1.729-1.285,1.027-1.034,2.507-1.093,3.831-1.454h0Z" fill="#0b1a24"/><path d="M35.164,25c-.401,2.13-7.155,2.614-10.974,2.614s-8.559-.247-8.83-1.609,5.144-3.231,11.006-3.232c4.974,0,8.96,1.369,8.798,2.227Z" fill="#c5e0db"/><path d="M35.355,24.416c-.819-.987-4.624-2.042-8.984-2.042h-.005c-5.281,0-10.012,1.445-11.118,2.793-.308.375-.322.706-.28.917,0,0,0,0,0,.001.412,2.076.812,4.6,1.166,6.826.429,2.701.768,4.834,1.012,5.505.528,1.446,2.866,2.991,7.843,2.991,5.021,0,7.063-1.846,7.834-2.945.469-.667,1.108-4.171,2.03-9.44.249-1.423.489-2.798.705-3.945,0,0,0,0,0,0h0c.028-.155.017-.395-.202-.659ZM15.867,25.674c.855-1.043,5.264-2.5,10.499-2.5h.006c4.759,0,8.123,1.225,8.393,1.784-.36,1.551-5.718,2.257-10.574,2.257-7.787,0-8.396-1.072-8.438-1.288-.012-.058.03-.15.114-.253Z" fill="#008a95"/><path d="M31.659,36.482c.853-2.618,1.618-5.228,1.187-8.003-.927,2.587-1.708,5.24-1.187,8.003Z" fill="#eef8f8"/></svg>